<?xml version="1.0" encoding="utf-8" standalone="no"?>
<!DOCTYPE svg PUBLIC "-//W3C//DTD SVG 1.1//EN"
  "http://www.w3.org/Graphics/SVG/1.1/DTD/svg11.dtd">
<svg xmlns:xlink="http://www.w3.org/1999/xlink" width="777.6pt" height="453.6pt" viewBox="0 0 777.6 453.6" xmlns="http://www.w3.org/2000/svg" version="1.1">
 <metadata>
  <rdf:RDF xmlns:dc="http://purl.org/dc/elements/1.1/" xmlns:cc="http://creativecommons.org/ns#" xmlns:rdf="http://www.w3.org/1999/02/22-rdf-syntax-ns#">
   <cc:Work>
    <dc:type rdf:resource="http://purl.org/dc/dcmitype/StillImage"/>
    <dc:date>2026-09-24T15:16:34.710120</dc:date>
    <dc:format>image/svg+xml</dc:format>
    <dc:creator>
     <cc:Agent>
      <dc:title>Matplotlib v3.10.9, https://matplotlib.org/</dc:title>
     </cc:Agent>
    </dc:creator>
   </cc:Work>
  </rdf:RDF>
 </metadata>
 <defs>
  <style type="text/css">*{stroke-linejoin: round; stroke-linecap: butt}</style>
 </defs>
 <g id="figure_1">
  <g id="patch_1">
   <path d="M 0 453.6 
L 777.6 453.6 
L 777.6 0 
L 0 0 
z
" style="fill: #ffffff"/>
  </g>
  <g id="axes_1">
   <g id="patch_2">
    <path d="M 73.046 382.156 
L 744.273 382.156 
L 744.273 93.312 
L 73.046 93.312 
z
" style="fill: #ffffff"/>
   </g>
   <g id="matplotlib.axis_1">
    <g id="xtick_1">
     <g id="line2d_1">
      <path d="M 73.046 382.156 
L 73.046 93.312 
" clip-path="url(#p2ccb1567d7)" style="fill: none; stroke: #dde5eb; stroke-opacity: 0.6; stroke-width: 0.8; stroke-linecap: square"/>
     </g>
     <g id="line2d_2">
      <defs>
       <path id="m32a8e52a79" d="M 0 0 
L 0 3.5 
" style="stroke: #33485a; stroke-width: 0.8"/>
      </defs>
      <g>
       <use xlink:href="#m32a8e52a79" x="73.046" y="382.156" style="fill: #33485a; stroke: #33485a; stroke-width: 0.8"/>
      </g>
     </g>
     <g id="text_1">
      <text style="font-size: 10px; font-family: 'Noto Sans CJK JP'; text-anchor: middle; fill: #33485a" x="73.046" y="397.115375" transform="rotate(-0 73.046 397.115375)">0.0</text>
     </g>
    </g>
    <g id="xtick_2">
     <g id="line2d_3">
      <path d="M 207.2914 382.156 
L 207.2914 93.312 
" clip-path="url(#p2ccb1567d7)" style="fill: none; stroke: #dde5eb; stroke-opacity: 0.6; stroke-width: 0.8; stroke-linecap: square"/>
     </g>
     <g id="line2d_4">
      <g>
       <use xlink:href="#m32a8e52a79" x="207.2914" y="382.156" style="fill: #33485a; stroke: #33485a; stroke-width: 0.8"/>
      </g>
     </g>
     <g id="text_2">
      <text style="font-size: 10px; font-family: 'Noto Sans CJK JP'; text-anchor: middle; fill: #33485a" x="207.2914" y="397.115375" transform="rotate(-0 207.2914 397.115375)">0.2</text>
     </g>
    </g>
    <g id="xtick_3">
     <g id="line2d_5">
      <path d="M 341.5368 382.156 
L 341.5368 93.312 
" clip-path="url(#p2ccb1567d7)" style="fill: none; stroke: #dde5eb; stroke-opacity: 0.6; stroke-width: 0.8; stroke-linecap: square"/>
     </g>
     <g id="line2d_6">
      <g>
       <use xlink:href="#m32a8e52a79" x="341.5368" y="382.156" style="fill: #33485a; stroke: #33485a; stroke-width: 0.8"/>
      </g>
     </g>
     <g id="text_3">
      <text style="font-size: 10px; font-family: 'Noto Sans CJK JP'; text-anchor: middle; fill: #33485a" x="341.5368" y="397.115375" transform="rotate(-0 341.5368 397.115375)">0.4</text>
     </g>
    </g>
    <g id="xtick_4">
     <g id="line2d_7">
      <path d="M 475.7822 382.156 
L 475.7822 93.312 
" clip-path="url(#p2ccb1567d7)" style="fill: none; stroke: #dde5eb; stroke-opacity: 0.6; stroke-width: 0.8; stroke-linecap: square"/>
     </g>
     <g id="line2d_8">
      <g>
       <use xlink:href="#m32a8e52a79" x="475.7822" y="382.156" style="fill: #33485a; stroke: #33485a; stroke-width: 0.8"/>
      </g>
     </g>
     <g id="text_4">
      <text style="font-size: 10px; font-family: 'Noto Sans CJK JP'; text-anchor: middle; fill: #33485a" x="475.7822" y="397.115375" transform="rotate(-0 475.7822 397.115375)">0.6</text>
     </g>
    </g>
    <g id="xtick_5">
     <g id="line2d_9">
      <path d="M 610.0276 382.156 
L 610.0276 93.312 
" clip-path="url(#p2ccb1567d7)" style="fill: none; stroke: #dde5eb; stroke-opacity: 0.6; stroke-width: 0.8; stroke-linecap: square"/>
     </g>
     <g id="line2d_10">
      <g>
       <use xlink:href="#m32a8e52a79" x="610.0276" y="382.156" style="fill: #33485a; stroke: #33485a; stroke-width: 0.8"/>
      </g>
     </g>
     <g id="text_5">
      <text style="font-size: 10px; font-family: 'Noto Sans CJK JP'; text-anchor: middle; fill: #33485a" x="610.0276" y="397.115375" transform="rotate(-0 610.0276 397.115375)">0.8</text>
     </g>
    </g>
    <g id="xtick_6">
     <g id="line2d_11">
      <path d="M 744.273 382.156 
L 744.273 93.312 
" clip-path="url(#p2ccb1567d7)" style="fill: none; stroke: #dde5eb; stroke-opacity: 0.6; stroke-width: 0.8; stroke-linecap: square"/>
     </g>
     <g id="line2d_12">
      <g>
       <use xlink:href="#m32a8e52a79" x="744.273" y="382.156" style="fill: #33485a; stroke: #33485a; stroke-width: 0.8"/>
      </g>
     </g>
     <g id="text_6">
      <text style="font-size: 10px; font-family: 'Noto Sans CJK JP'; text-anchor: middle; fill: #33485a" x="744.273" y="397.115375" transform="rotate(-0 744.273 397.115375)">1.0</text>
     </g>
    </g>
    <g id="text_7">
     <text style="font-size: 10px; font-family: 'Noto Sans CJK JP'; text-anchor: middle; fill: #33485a" x="408.6595" y="411.365375" transform="rotate(-0 408.6595 411.365375)">召回率</text>
    </g>
   </g>
   <g id="matplotlib.axis_2">
    <g id="ytick_1">
     <g id="line2d_13">
      <path d="M 73.046 382.156 
L 744.273 382.156 
" clip-path="url(#p2ccb1567d7)" style="fill: none; stroke: #dde5eb; stroke-opacity: 0.6; stroke-width: 0.8; stroke-linecap: square"/>
     </g>
     <g id="line2d_14">
      <defs>
       <path id="m3a9a75a81c" d="M 0 0 
L -3.5 0 
" style="stroke: #33485a; stroke-width: 0.8"/>
      </defs>
      <g>
       <use xlink:href="#m3a9a75a81c" x="73.046" y="382.156" style="fill: #33485a; stroke: #33485a; stroke-width: 0.8"/>
      </g>
     </g>
     <g id="text_8">
      <text style="font-size: 10px; font-family: 'Noto Sans CJK JP'; text-anchor: end; fill: #33485a" x="66.046" y="386.135688" transform="rotate(-0 66.046 386.135688)">0.0</text>
     </g>
    </g>
    <g id="ytick_2">
     <g id="line2d_15">
      <path d="M 73.046 326.069786 
L 744.273 326.069786 
" clip-path="url(#p2ccb1567d7)" style="fill: none; stroke: #dde5eb; stroke-opacity: 0.6; stroke-width: 0.8; stroke-linecap: square"/>
     </g>
     <g id="line2d_16">
      <g>
       <use xlink:href="#m3a9a75a81c" x="73.046" y="326.069786" style="fill: #33485a; stroke: #33485a; stroke-width: 0.8"/>
      </g>
     </g>
     <g id="text_9">
      <text style="font-size: 10px; font-family: 'Noto Sans CJK JP'; text-anchor: end; fill: #33485a" x="66.046" y="330.049474" transform="rotate(-0 66.046 330.049474)">0.2</text>
     </g>
    </g>
    <g id="ytick_3">
     <g id="line2d_17">
      <path d="M 73.046 269.983573 
L 744.273 269.983573 
" clip-path="url(#p2ccb1567d7)" style="fill: none; stroke: #dde5eb; stroke-opacity: 0.6; stroke-width: 0.8; stroke-linecap: square"/>
     </g>
     <g id="line2d_18">
      <g>
       <use xlink:href="#m3a9a75a81c" x="73.046" y="269.983573" style="fill: #33485a; stroke: #33485a; stroke-width: 0.8"/>
      </g>
     </g>
     <g id="text_10">
      <text style="font-size: 10px; font-family: 'Noto Sans CJK JP'; text-anchor: end; fill: #33485a" x="66.046" y="273.96326" transform="rotate(-0 66.046 273.96326)">0.4</text>
     </g>
    </g>
    <g id="ytick_4">
     <g id="line2d_19">
      <path d="M 73.046 213.897359 
L 744.273 213.897359 
" clip-path="url(#p2ccb1567d7)" style="fill: none; stroke: #dde5eb; stroke-opacity: 0.6; stroke-width: 0.8; stroke-linecap: square"/>
     </g>
     <g id="line2d_20">
      <g>
       <use xlink:href="#m3a9a75a81c" x="73.046" y="213.897359" style="fill: #33485a; stroke: #33485a; stroke-width: 0.8"/>
      </g>
     </g>
     <g id="text_11">
      <text style="font-size: 10px; font-family: 'Noto Sans CJK JP'; text-anchor: end; fill: #33485a" x="66.046" y="217.877047" transform="rotate(-0 66.046 217.877047)">0.6</text>
     </g>
    </g>
    <g id="ytick_5">
     <g id="line2d_21">
      <path d="M 73.046 157.811146 
L 744.273 157.811146 
" clip-path="url(#p2ccb1567d7)" style="fill: none; stroke: #dde5eb; stroke-opacity: 0.6; stroke-width: 0.8; stroke-linecap: square"/>
     </g>
     <g id="line2d_22">
      <g>
       <use xlink:href="#m3a9a75a81c" x="73.046" y="157.811146" style="fill: #33485a; stroke: #33485a; stroke-width: 0.8"/>
      </g>
     </g>
     <g id="text_12">
      <text style="font-size: 10px; font-family: 'Noto Sans CJK JP'; text-anchor: end; fill: #33485a" x="66.046" y="161.790833" transform="rotate(-0 66.046 161.790833)">0.8</text>
     </g>
    </g>
    <g id="ytick_6">
     <g id="line2d_23">
      <path d="M 73.046 101.724932 
L 744.273 101.724932 
" clip-path="url(#p2ccb1567d7)" style="fill: none; stroke: #dde5eb; stroke-opacity: 0.6; stroke-width: 0.8; stroke-linecap: square"/>
     </g>
     <g id="line2d_24">
      <g>
       <use xlink:href="#m3a9a75a81c" x="73.046" y="101.724932" style="fill: #33485a; stroke: #33485a; stroke-width: 0.8"/>
      </g>
     </g>
     <g id="text_13">
      <text style="font-size: 10px; font-family: 'Noto Sans CJK JP'; text-anchor: end; fill: #33485a" x="66.046" y="105.70462" transform="rotate(-0 66.046 105.70462)">1.0</text>
     </g>
    </g>
    <g id="text_14">
     <text style="font-size: 10px; font-family: 'Noto Sans CJK JP'; text-anchor: middle; fill: #33485a" x="45.875687" y="237.734" transform="rotate(-90 45.875687 237.734)">精确率</text>
    </g>
   </g>
   <g id="line2d_25">
    <path d="M 73.046 302.803253 
L 744.273 302.803253 
" clip-path="url(#p2ccb1567d7)" style="fill: none; stroke-dasharray: 1.5,2.475; stroke-dashoffset: 0; stroke: #467aa5; stroke-opacity: 0.5; stroke-width: 1.5"/>
   </g>
   <g id="line2d_26">
    <path d="M 744.273 302.803253 
L 744.273 294.361471 
L 737.756233 294.948778 
L 737.756233 286.809437 
L 734.49785 287.118426 
L 734.49785 285.831961 
L 731.239466 286.144007 
L 731.239466 285.980999 
L 727.981083 286.294359 
L 727.981083 282.91895 
L 724.722699 283.238516 
L 724.722699 274.090078 
L 721.464316 274.422829 
L 721.464316 274.214448 
L 718.205932 274.54873 
L 718.205932 271.105297 
L 714.947549 271.444737 
L 714.947549 270.999219 
L 705.172398 272.0272 
L 705.172398 271.579522 
L 701.914015 271.925458 
L 701.914015 270.331215 
L 695.397248 271.030826 
L 695.397248 268.193587 
L 692.138864 268.548531 
L 692.138864 267.571263 
L 688.880481 267.92869 
L 688.880481 266.179038 
L 682.363714 266.901913 
L 682.363714 264.8392 
L 679.10533 265.204927 
L 679.10533 264.146546 
L 675.846947 264.514849 
L 675.846947 263.165753 
L 666.071796 264.284281 
L 666.071796 263.737312 
L 659.555029 264.492615 
L 659.555029 263.105075 
L 653.038262 263.86991 
L 653.038262 262.737985 
L 649.779879 263.124108 
L 649.779879 261.091856 
L 646.521495 261.481506 
L 646.521495 259.98801 
L 643.263112 260.380722 
L 643.263112 260.077799 
L 640.004728 260.472694 
L 640.004728 259.555483 
L 636.746345 259.953041 
L 636.746345 259.644448 
L 633.487961 260.044244 
L 633.487961 259.109715 
L 630.229578 259.512234 
L 630.229578 253.24817 
L 626.971194 253.656589 
L 626.971194 251.901132 
L 620.454427 252.726276 
L 620.454427 251.650683 
L 617.196044 252.067143 
L 617.196044 251.34039 
L 613.93766 251.759481 
L 613.93766 249.530481 
L 607.420893 250.377504 
L 607.420893 249.617974 
L 604.16251 250.04541 
L 604.16251 249.277325 
L 600.904126 249.707507 
L 600.904126 247.74821 
L 597.645743 248.181514 
L 597.645743 244.505384 
L 594.387359 244.942022 
L 594.387359 244.097628 
L 591.128976 244.53705 
L 591.128976 244.110985 
L 584.612209 244.998126 
L 584.612209 244.138202 
L 581.353825 244.586042 
L 581.353825 243.715346 
L 574.837058 244.619744 
L 574.837058 242.394238 
L 571.578675 242.850956 
L 571.578675 239.136155 
L 565.061908 240.058378 
L 565.061908 237.138564 
L 558.545141 238.072451 
L 558.545141 235.54467 
L 555.286757 236.015866 
L 555.286757 234.979411 
L 548.76999 235.931229 
L 548.76999 235.407126 
L 542.253223 236.37234 
L 542.253223 235.312095 
L 535.736456 236.290756 
L 535.736456 235.21426 
L 532.478073 235.708665 
L 532.478073 234.615774 
L 529.219689 235.113492 
L 529.219689 230.571639 
L 525.961306 231.071045 
L 525.961306 229.890694 
L 522.702922 230.393304 
L 522.702922 227.35805 
L 512.927772 228.883959 
L 512.927772 228.260902 
L 509.669388 228.777375 
L 509.669388 226.231672 
L 503.152621 227.273569 
L 503.152621 225.304725 
L 490.119087 227.435411 
L 490.119087 225.408503 
L 486.860704 225.950975 
L 486.860704 223.868242 
L 483.60232 224.413524 
L 483.60232 222.992421 
L 473.82717 224.653619 
L 473.82717 223.931131 
L 467.310403 225.06267 
L 467.310403 223.594508 
L 457.535252 225.327251 
L 457.535252 221.520728 
L 451.018485 222.695197 
L 451.018485 221.909675 
L 447.760102 222.504649 
L 447.760102 219.27937 
L 444.501718 219.876093 
L 444.501718 213.897359 
L 441.243335 214.490864 
L 441.243335 213.599028 
L 437.984951 214.197285 
L 437.984951 212.381516 
L 434.726568 212.98291 
L 434.726568 211.123865 
L 428.209801 212.339409 
L 428.209801 210.431357 
L 424.951417 211.045518 
L 424.951417 210.073299 
L 421.693034 210.692433 
L 421.693034 208.710195 
L 415.176267 209.961485 
L 415.176267 208.948576 
L 398.88435 212.197777 
L 392.367583 213.553272 
L 392.367583 210.391971 
L 389.109199 211.075411 
L 389.109199 207.7854 
L 385.850816 208.469661 
L 385.850816 207.341828 
L 382.592432 208.032134 
L 382.592432 206.886583 
L 379.334049 207.583017 
L 379.334049 206.419197 
L 376.075665 207.121843 
L 376.075665 203.525251 
L 372.817282 204.227322 
L 372.817282 201.738809 
L 369.558898 202.443133 
L 369.558898 201.168573 
L 366.300515 201.878885 
L 366.300515 199.266173 
L 363.042131 199.978153 
L 363.042131 198.63861 
L 359.783748 199.356489 
L 359.783748 197.992314 
L 353.266981 199.45091 
L 353.266981 198.056215 
L 350.008597 198.797225 
L 350.008597 197.375839 
L 346.750214 198.123112 
L 346.750214 196.674034 
L 343.49183 197.427598 
L 343.49183 192.922027 
L 340.233447 193.669544 
L 340.233447 192.111805 
L 330.458296 194.409777 
L 330.458296 192.805108 
L 327.199913 193.590282 
L 327.199913 191.95058 
L 323.941529 192.742033 
L 323.941529 189.359641 
L 317.424762 190.952999 
L 317.424762 183.737792 
L 314.166379 184.518866 
L 314.166379 178.70601 
L 310.907995 179.468198 
L 310.907995 175.373495 
L 297.874461 178.474487 
L 294.616078 179.290972 
L 294.616078 177.109628 
L 288.099311 178.766434 
L 288.099311 176.50655 
L 278.32416 179.085227 
L 275.065777 179.984765 
L 275.065777 177.60628 
L 268.54901 179.434746 
L 268.54901 171.832699 
L 258.773859 174.56417 
L 255.515476 175.522582 
L 255.515476 169.937895 
L 252.257092 170.872319 
L 252.257092 167.937823 
L 242.481942 170.816644 
L 242.481942 167.708713 
L 239.223558 168.693545 
L 239.223558 165.459266 
L 229.448408 168.494234 
L 219.673257 171.832699 
L 216.414874 173.020966 
L 216.414874 169.41519 
L 213.15649 170.602738 
L 213.15649 162.909892 
L 209.898107 164.042947 
L 209.898107 159.927607 
L 203.38134 162.210064 
L 196.864573 164.678845 
L 190.347806 167.357735 
L 187.089422 168.784535 
L 187.089422 164.042947 
L 183.831039 165.459266 
L 183.831039 155.140374 
L 177.314272 157.811146 
L 177.314272 152.058713 
L 170.797505 154.779458 
L 164.280738 157.811146 
L 157.763971 161.21031 
L 154.505587 163.069228 
L 154.505587 156.001913 
L 147.98882 159.745153 
L 147.98882 151.801908 
L 144.730437 153.656611 
L 141.472053 155.653984 
L 138.21367 157.811146 
L 134.955286 160.148071 
L 131.696903 162.688208 
L 131.696903 141.786513 
L 128.438519 143.789592 
L 125.180136 146.003522 
L 125.180136 132.88394 
L 121.921752 134.716822 
L 118.663369 136.778816 
L 115.404985 139.115741 
L 112.146602 141.786513 
L 108.888218 144.868173 
L 105.629835 148.463443 
L 102.371451 152.712399 
L 99.113068 157.811146 
L 95.854684 164.042947 
L 92.596301 171.832699 
L 89.337917 181.848094 
L 86.079534 195.201955 
L 82.82115 213.897359 
L 79.562767 241.940466 
L 76.304383 288.678977 
L 76.304383 101.724932 
L 73.046 101.724932 
L 73.046 101.724932 
" clip-path="url(#p2ccb1567d7)" style="fill: none; stroke: #467aa5; stroke-width: 2; stroke-linecap: square"/>
   </g>
   <g id="line2d_27">
    <path d="M 73.046 311.277818 
L 744.273 311.277818 
" clip-path="url(#p2ccb1567d7)" style="fill: none; stroke-dasharray: 1.5,2.475; stroke-dashoffset: 0; stroke: #c3a34f; stroke-opacity: 0.5; stroke-width: 1.5"/>
   </g>
   <g id="line2d_28">
    <path d="M 744.273 311.277818 
L 744.273 310.190426 
L 740.625027 310.481579 
L 740.625027 310.381335 
L 740.625027 305.902084 
L 733.329082 306.51066 
L 733.329082 305.713194 
L 729.681109 306.020868 
L 729.681109 304.498166 
L 722.385163 305.124009 
L 722.385163 304.161109 
L 718.73719 304.477911 
L 718.73719 304.111505 
L 715.089217 304.430224 
L 715.089217 304.184645 
L 711.441245 304.504992 
L 711.441245 298.977293 
L 707.793272 299.312187 
L 707.793272 299.171296 
L 700.497326 299.845175 
L 700.497326 299.13682 
L 696.849353 299.477185 
L 696.849353 298.612947 
L 693.20138 298.956556 
L 693.20138 298.224166 
L 689.553408 298.570726 
L 689.553408 296.763477 
L 685.905435 297.115532 
L 685.905435 296.341028 
L 678.609489 297.052605 
L 678.609489 296.108759 
L 674.961516 296.468729 
L 674.961516 294.521291 
L 667.665571 295.254357 
L 667.665571 295.08883 
L 664.017598 295.457845 
L 664.017598 292.90289 
L 656.721652 293.657044 
L 656.721652 293.306553 
L 653.073679 293.686675 
L 653.073679 292.62078 
L 649.425707 293.004876 
L 649.425707 292.463472 
L 645.777734 292.850366 
L 645.777734 292.486595 
L 642.129761 292.875905 
L 642.129761 292.693328 
L 638.481788 293.084657 
L 638.481788 292.162593 
L 634.833815 292.557692 
L 634.833815 292.184366 
L 623.889897 293.382224 
L 623.889897 290.301138 
L 616.593951 291.122821 
L 616.593951 290.322529 
L 612.945978 290.737943 
L 612.945978 290.536137 
L 605.650033 291.373437 
L 605.650033 290.149402 
L 598.354087 291.000077 
L 598.354087 290.586672 
L 594.706114 291.015903 
L 594.706114 290.599738 
L 591.058141 291.031946 
L 591.058141 290.612985 
L 587.410168 291.048211 
L 587.410168 289.770999 
L 583.762196 290.211388 
L 583.762196 287.094621 
L 580.114223 287.544547 
L 580.114223 285.671053 
L 576.46625 286.127495 
L 576.46625 285.407282 
L 572.818277 285.867638 
L 572.818277 284.892566 
L 569.170304 285.357459 
L 569.170304 284.863589 
L 565.522332 285.331974 
L 565.522332 281.200816 
L 561.874359 281.680698 
L 561.874359 280.594478 
L 550.93044 282.056627 
L 550.93044 281.783131 
L 547.282467 282.276442 
L 547.282467 281.44871 
L 543.634495 281.94656 
L 543.634495 281.38829 
L 539.986522 281.890143 
L 539.986522 280.757196 
L 536.338549 281.264369 
L 536.338549 280.689488 
L 532.690576 281.200816 
L 532.690576 280.620613 
L 529.042603 281.136163 
L 529.042603 280.844198 
L 525.39463 281.363384 
L 525.39463 279.88114 
L 521.746658 280.406674 
L 521.746658 279.498198 
L 518.098685 280.028865 
L 518.098685 279.723095 
L 514.450712 280.257624 
L 514.450712 279.950701 
L 510.802739 280.489148 
L 510.802739 278.292641 
L 507.154766 278.839291 
L 507.154766 277.543783 
L 503.506793 278.096673 
L 503.506793 277.76841 
L 499.858821 278.32551 
L 499.858821 277.995889 
L 496.210848 278.557262 
L 496.210848 277.893167 
L 492.562875 278.459624 
L 492.562875 277.449595 
L 488.914902 278.021988 
L 488.914902 276.647281 
L 485.266929 277.226494 
L 485.266929 276.877891 
L 481.618957 277.461735 
L 481.618957 276.759089 
L 477.970984 277.348429 
L 477.970984 271.773558 
L 474.323011 272.378714 
L 474.323011 269.983573 
L 467.027065 271.216237 
L 467.027065 270.80837 
L 459.73112 272.06084 
L 459.73112 268.699156 
L 456.083147 269.338904 
L 456.083147 265.309722 
L 452.435174 265.961454 
L 452.435174 264.555875 
L 448.787201 265.215109 
L 448.787201 264.73974 
L 437.843283 266.752268 
L 437.843283 265.794561 
L 434.19531 266.478184 
L 434.19531 264.016954 
L 430.547337 264.71051 
L 430.547337 262.146198 
L 426.899364 262.8498 
L 426.899364 260.719332 
L 423.251391 261.432312 
L 423.251391 260.339789 
L 415.955446 261.788327 
L 415.955446 259.548928 
L 412.307473 260.286424 
L 412.307473 258.553681 
L 408.6595 259.300485 
L 408.6595 258.712659 
L 405.011527 259.467408 
L 405.011527 258.874709 
L 401.363554 259.637572 
L 401.363554 259.039921 
L 394.067609 260.589823 
L 394.067609 259.380209 
L 386.771663 260.964684 
L 386.771663 260.352607 
L 379.475717 261.971257 
L 379.475717 260.732239 
L 375.827745 261.556111 
L 375.827745 260.293285 
L 368.531799 261.971257 
L 368.531799 261.331976 
L 353.939908 264.801694 
L 353.939908 261.523641 
L 350.291935 262.421387 
L 350.291935 261.74492 
L 346.643962 262.654124 
L 346.643962 258.436411 
L 342.995989 259.363698 
L 342.995989 257.893132 
L 339.348016 258.833904 
L 339.348016 255.788914 
L 335.700043 256.745833 
L 335.700043 255.168347 
L 332.052071 256.139507 
L 332.052071 253.700479 
L 328.404098 254.687333 
L 328.404098 250.409861 
L 313.812207 254.511514 
L 310.164234 255.572532 
L 310.164234 253.789666 
L 306.516261 254.868139 
L 306.516261 253.036659 
L 302.868288 254.133121 
L 302.868288 253.198648 
L 288.276397 257.754248 
L 288.276397 255.854985 
L 280.980451 258.244598 
L 280.980451 253.24817 
L 277.332478 254.480067 
L 277.332478 251.288168 
L 273.684505 252.545002 
L 273.684505 251.446604 
L 270.036533 252.726276 
L 270.036533 249.320231 
L 266.38856 250.626384 
L 266.38856 249.452012 
L 262.740587 250.782887 
L 262.740587 245.871743 
L 251.796668 250.029824 
L 248.148696 251.469677 
L 248.148696 250.188439 
L 240.85275 253.157709 
L 240.85275 251.854696 
L 233.556804 254.950155 
L 233.556804 248.036794 
L 229.908832 249.644616 
L 229.908832 248.172268 
L 226.260859 249.817743 
L 226.260859 248.313899 
L 218.964913 251.722945 
L 218.964913 236.477523 
L 211.668967 240.070926 
L 204.373022 243.861227 
L 204.373022 237.934308 
L 200.725049 239.908357 
L 200.725049 237.81648 
L 193.429103 241.940466 
L 193.429103 232.894303 
L 189.78113 235.04462 
L 189.78113 232.592764 
L 186.133158 234.810863 
L 186.133158 232.270429 
L 178.837212 236.932768 
L 178.837212 234.292346 
L 171.541266 239.29489 
L 167.893293 241.940466 
L 167.893293 239.191142 
L 164.245321 241.940466 
L 164.245321 239.078925 
L 160.597348 241.940466 
L 160.597348 221.909675 
L 156.949375 224.841011 
L 153.301402 227.918913 
L 149.653429 231.154656 
L 149.653429 222.992421 
L 146.005457 226.360962 
L 142.357484 229.921992 
L 138.709511 233.692493 
L 135.061538 237.69151 
L 131.413565 241.940466 
L 131.413565 237.417384 
L 127.765592 241.940466 
L 127.765592 226.360962 
L 124.11762 231.154656 
L 124.11762 218.57121 
L 120.469647 223.651483 
L 116.821674 229.193599 
L 116.821674 213.897359 
L 113.173701 219.801171 
L 113.173701 210.781458 
L 109.525728 217.196548 
L 105.877755 224.413524 
L 105.877755 213.897359 
L 102.229783 221.909675 
L 98.58181 231.154656 
L 94.933837 241.940466 
L 94.933837 229.193599 
L 91.285864 241.940466 
L 87.637891 257.51997 
L 87.637891 241.940466 
L 83.989918 261.971257 
L 83.989918 241.940466 
L 80.341946 269.983573 
L 80.341946 195.201955 
L 76.693973 241.940466 
L 76.693973 101.724932 
L 73.046 101.724932 
L 73.046 101.724932 
" clip-path="url(#p2ccb1567d7)" style="fill: none; stroke: #c3a34f; stroke-width: 2; stroke-linecap: square"/>
   </g>
   <g id="line2d_29">
    <path d="M 73.046 251.955861 
L 744.273 251.955861 
" clip-path="url(#p2ccb1567d7)" style="fill: none; stroke-dasharray: 1.5,2.475; stroke-dashoffset: 0; stroke: #b46373; stroke-opacity: 0.5; stroke-width: 1.5"/>
   </g>
   <g id="line2d_30">
    <path d="M 744.273 251.955861 
L 744.273 251.236524 
L 742.287121 251.443317 
L 742.287121 248.48518 
L 740.301243 248.693055 
L 740.301243 246.385339 
L 738.315364 246.594084 
L 738.315364 244.002459 
L 736.329485 244.211999 
L 736.329485 244.008542 
L 732.357728 244.429499 
L 732.357728 243.196128 
L 730.371849 243.407594 
L 730.371849 242.991557 
L 728.38597 243.203669 
L 728.38597 242.152592 
L 726.400092 242.365362 
L 726.400092 240.432772 
L 724.414213 240.646169 
L 724.414213 238.210162 
L 722.428334 238.424089 
L 722.428334 236.598922 
L 720.442456 236.813348 
L 720.442456 235.883155 
L 718.456577 236.098152 
L 718.456577 234.680115 
L 716.470698 234.895601 
L 716.470698 234.656542 
L 714.48482 234.872691 
L 714.48482 233.90848 
L 712.498941 234.125174 
L 712.498941 233.882102 
L 710.513062 234.099466 
L 710.513062 232.8718 
L 708.527183 233.089652 
L 708.527183 231.588984 
L 706.541305 231.807243 
L 706.541305 229.237178 
L 704.555426 229.455521 
L 704.555426 229.193599 
L 700.583669 229.63239 
L 700.583669 228.040839 
L 692.640154 228.925714 
L 692.640154 228.387119 
L 690.654275 228.610116 
L 690.654275 227.794828 
L 686.682518 228.242679 
L 686.682518 227.418143 
L 682.71076 227.868656 
L 682.71076 227.313666 
L 680.724882 227.539952 
L 680.724882 226.980762 
L 676.753124 227.435411 
L 676.753124 226.5884 
L 674.767246 226.81667 
L 674.767246 226.246617 
L 664.837852 227.399596 
L 664.837852 227.112478 
L 662.851973 227.345541 
L 662.851973 226.477445 
L 660.866095 226.711063 
L 660.866095 226.126684 
L 658.880216 226.360962 
L 658.880216 225.771945 
L 654.908459 226.242712 
L 654.908459 225.648756 
L 652.92258 225.885252 
L 652.92258 225.286514 
L 650.936701 225.523676 
L 650.936701 223.390551 
L 648.950822 223.627716 
L 648.950822 221.751642 
L 646.964944 221.988849 
L 646.964944 221.671686 
L 644.979065 221.909675 
L 644.979065 220.950117 
L 642.993186 221.188567 
L 642.993186 220.216933 
L 641.007308 220.455828 
L 641.007308 219.141192 
L 639.021429 219.380329 
L 639.021429 217.36661 
L 637.03555 217.605539 
L 637.03555 216.922757 
L 635.049672 217.162253 
L 635.049672 216.126728 
L 633.063793 216.366564 
L 633.063793 216.018266 
L 631.077914 216.258884 
L 631.077914 215.557416 
L 627.106157 216.040781 
L 627.106157 214.258429 
L 625.120278 214.500437 
L 625.120278 212.678094 
L 623.134399 212.919822 
L 623.134399 212.55031 
L 621.148521 212.792817 
L 621.148521 212.421406 
L 619.162642 212.664695 
L 619.162642 210.781458 
L 617.176763 211.024346 
L 617.176763 210.642356 
L 615.190885 210.886019 
L 615.190885 210.116266 
L 611.219127 210.605618 
L 611.219127 208.250235 
L 605.261491 208.986585 
L 605.261491 208.184875 
L 603.275612 208.431881 
L 603.275612 208.027872 
L 601.289734 208.275664 
L 601.289734 207.051155 
L 599.303855 207.298981 
L 599.303855 206.886583 
L 597.317976 207.135192 
L 597.317976 206.72045 
L 595.332098 206.969846 
L 595.332098 206.133635 
L 591.36034 206.634396 
L 591.36034 204.50428 
L 587.388583 205.005642 
L 587.388583 203.260319 
L 585.402704 203.511023 
L 585.402704 203.068833 
L 583.416825 203.320307 
L 583.416825 202.428358 
L 579.445068 202.933137 
L 579.445068 201.118222 
L 577.459189 201.370489 
L 577.459189 200.910475 
L 575.473311 201.1635 
L 575.473311 196.425476 
L 571.501553 196.9239 
L 571.501553 196.435161 
L 569.515675 196.685717 
L 569.515675 196.193753 
L 561.57216 197.206824 
L 561.57216 196.209793 
L 553.628645 197.239601 
L 553.628645 196.734365 
L 537.741615 198.857481 
L 537.741615 196.786311 
L 535.755737 197.055607 
L 535.755737 196.529753 
L 531.783979 197.071495 
L 531.783979 196.541167 
L 529.798101 196.813627 
L 529.798101 196.2795 
L 525.826343 196.827642 
L 525.826343 193.547494 
L 523.840464 193.819158 
L 523.840464 193.260295 
L 517.882828 194.082469 
L 517.882828 192.949496 
L 515.89695 193.225099 
L 515.89695 192.652581 
L 513.911071 192.928957 
L 513.911071 192.352045 
L 511.925192 192.629193 
L 511.925192 190.874315 
L 509.939314 191.150319 
L 509.939314 189.359641 
L 507.953435 189.634358 
L 507.953435 188.41971 
L 503.981678 188.970153 
L 503.981678 187.112597 
L 501.995799 187.387155 
L 501.995799 186.758869 
L 500.00992 187.03406 
L 500.00992 181.848094 
L 498.024041 182.115172 
L 498.024041 181.446139 
L 496.038163 181.713659 
L 496.038163 181.038769 
L 490.080527 181.848094 
L 490.080527 181.16445 
L 488.094648 181.436503 
L 488.094648 180.746745 
L 486.108769 181.019234 
L 486.108769 180.323259 
L 482.137012 180.870983 
L 482.137012 179.458456 
L 474.193497 180.564983 
L 474.193497 179.845015 
L 472.207618 180.125016 
L 472.207618 179.398285 
L 470.22174 179.678695 
L 470.22174 177.46179 
L 466.249982 178.018678 
L 466.249982 176.50655 
L 462.278225 177.064622 
L 462.278225 176.296489 
L 456.320589 177.143893 
L 456.320589 172.37617 
L 448.377074 173.488788 
L 448.377074 170.994758 
L 440.433559 172.116536 
L 440.433559 171.262717 
L 438.44768 171.546545 
L 438.44768 169.813134 
L 436.461802 170.09449 
L 436.461802 167.43263 
L 432.490044 167.987125 
L 432.490044 166.164411 
L 420.574772 167.852782 
L 420.574772 165.008049 
L 416.603015 165.573077 
L 416.603015 164.601853 
L 414.617136 164.885082 
L 414.617136 162.909892 
L 412.631257 163.189276 
L 412.631257 162.184841 
L 408.6595 162.744655 
L 408.6595 161.724137 
L 406.673621 162.004507 
L 406.673621 159.927607 
L 394.758349 161.62283 
L 394.758349 160.547058 
L 390.786592 161.126587 
L 390.786592 160.032382 
L 386.814834 160.615456 
L 386.814834 159.502187 
L 384.828956 159.793992 
L 384.828956 157.524991 
L 376.885441 158.687493 
L 376.885441 153.932844 
L 374.899562 154.21203 
L 374.899562 152.986525 
L 370.927805 153.543716 
L 370.927805 152.294469 
L 366.956047 152.853248 
L 366.956047 151.579344 
L 362.98429 152.139506 
L 362.98429 149.525682 
L 357.026654 150.354597 
L 357.026654 149.006914 
L 351.069018 149.84624 
L 351.069018 148.463443 
L 345.111382 149.313234 
L 345.111382 147.893462 
L 343.125503 148.176704 
L 343.125503 146.732387 
L 337.167867 147.581585 
L 337.167867 146.096936 
L 333.196109 146.665808 
L 333.196109 145.146517 
L 331.210231 145.428475 
L 331.210231 143.881236 
L 329.224352 144.15858 
L 329.224352 142.582439 
L 323.266716 143.410631 
L 323.266716 140.140147 
L 319.294959 140.673691 
L 319.294959 138.985004 
L 313.337322 139.783434 
L 313.337322 138.039747 
L 299.436172 139.965532 
L 297.450293 140.257445 
L 297.450293 138.396687 
L 293.478536 138.969683 
L 293.478536 137.05483 
L 291.492657 137.335226 
L 291.492657 135.37666 
L 277.591506 137.372949 
L 275.605627 137.677633 
L 275.605627 135.570061 
L 269.647991 136.468604 
L 269.647991 134.274967 
L 267.662112 134.56821 
L 267.662112 132.317412 
L 255.74684 134.082363 
L 247.803325 135.37666 
L 247.803325 130.340347 
L 243.831568 130.936502 
L 243.831568 128.292086 
L 241.845689 128.574715 
L 241.845689 125.848035 
L 229.930417 127.511697 
L 229.930417 124.550717 
L 218.015145 126.26265 
L 208.085751 127.898498 
L 198.156358 129.768039 
L 192.198722 131.0237 
L 192.198722 127.218665 
L 188.226964 128.015345 
L 188.226964 123.981366 
L 180.28345 125.490277 
L 174.325814 126.76342 
L 174.325814 122.119919 
L 166.382299 123.719526 
L 158.438784 125.591406 
L 158.438784 120.013915 
L 152.481148 121.28989 
L 148.509391 122.244278 
L 148.509391 115.746485 
L 142.551754 116.883368 
L 136.594118 118.220877 
L 130.636482 119.817259 
L 126.664725 121.065006 
L 122.692967 122.497604 
L 118.72121 124.159417 
L 114.749453 126.110242 
L 110.777695 128.432653 
L 108.791817 129.768039 
L 106.805938 131.243992 
L 104.820059 132.88394 
L 102.83418 134.716822 
L 102.83418 101.724932 
L 73.046 101.724932 
L 73.046 101.724932 
" clip-path="url(#p2ccb1567d7)" style="fill: none; stroke: #b46373; stroke-width: 2; stroke-linecap: square"/>
   </g>
   <g id="patch_3">
    <path d="M 73.046 382.156 
L 73.046 93.312 
" style="fill: none; stroke: #bdcad3; stroke-width: 0.8; stroke-linejoin: miter; stroke-linecap: square"/>
   </g>
   <g id="patch_4">
    <path d="M 73.046 382.156 
L 744.273 382.156 
" style="fill: none; stroke: #bdcad3; stroke-width: 0.8; stroke-linejoin: miter; stroke-linecap: square"/>
   </g>
   <g id="legend_1">
    <g id="line2d_31">
     <path d="M 642.093313 106.771375 
L 652.093313 106.771375 
L 662.093313 106.771375 
" style="fill: none; stroke: #467aa5; stroke-width: 2; stroke-linecap: square"/>
    </g>
    <g id="text_15">
     <text style="font-size: 10px; font-family: 'Noto Sans CJK JP'; text-anchor: start; fill: #21394a" x="670.093313" y="110.271375" transform="rotate(-0 670.093313 110.271375)">负向 AP=0.616</text>
    </g>
    <g id="line2d_32">
     <path d="M 642.093313 122.021375 
L 652.093313 122.021375 
L 662.093313 122.021375 
" style="fill: none; stroke: #c3a34f; stroke-width: 2; stroke-linecap: square"/>
    </g>
    <g id="text_16">
     <text style="font-size: 10px; font-family: 'Noto Sans CJK JP'; text-anchor: start; fill: #21394a" x="670.093313" y="125.521375" transform="rotate(-0 670.093313 125.521375)">中性 AP=0.422</text>
    </g>
    <g id="line2d_33">
     <path d="M 642.093313 137.271375 
L 652.093313 137.271375 
L 662.093313 137.271375 
" style="fill: none; stroke: #b46373; stroke-width: 2; stroke-linecap: square"/>
    </g>
    <g id="text_17">
     <text style="font-size: 10px; font-family: 'Noto Sans CJK JP'; text-anchor: start; fill: #21394a" x="670.093313" y="140.771375" transform="rotate(-0 670.093313 140.771375)">正向 AP=0.764</text>
    </g>
   </g>
  </g>
  <g id="text_18">
   <text style="font-weight: 700; font-size: 18px; font-family: 'Noto Sans CJK JP'; text-anchor: start; fill: #21394a" x="42.768" y="25.703438" transform="rotate(-0 42.768 25.703438)">三分类一对其余PR曲线</text>
  </g>
  <g id="text_19">
   <text style="font-size: 9.4px; font-family: 'Noto Sans CJK JP'; text-anchor: start; fill: #627786" x="42.768" y="37.1952" transform="rotate(-0 42.768 37.1952)">完整验证集；曲线用于诊断，未据此调整决策阈值</text>
  </g>
  <g id="text_20">
   <text style="font-size: 8px; font-family: 'Noto Sans CJK JP'; text-anchor: start; fill: #6b7b88" x="42.768" y="442.26" transform="rotate(-0 42.768 442.26)">附件2验证集（参与选模）｜结果为开发评价，不代表独立测试精度</text>
  </g>
 </g>
 <defs>
  <clipPath id="p2ccb1567d7">
   <rect x="73.046" y="93.312" width="671.227" height="288.844"/>
  </clipPath>
 </defs>
</svg>
